Coordinates
version=1
nRows=12
nColumns=24
inDegrees=yes

Units are S.I. units (second, meters, Newtons, ...)
Angles are in degrees.

endheader
time	pelvis_tilt	pelvis_list	pelvis_rotation	pelvis_tx	pelvis_ty	pelvis_tz	hip_flexion_r	hip_adduction_r	hip_rotation_r	knee_angle_r	ankle_angle_r	subtalar_angle_r	mtp_angle_r	hip_flexion_l	hip_adduction_l	hip_rotation_l	knee_angle_l	ankle_angle_l	subtalar_angle_l	mtp_angle_l	lumbar_extension	lumbar_bending	lumbar_rotation
      0.76650000	      0.43383661	     -1.53706346	      4.29443605	     -0.51737474	      0.99875216	      0.32150133	      9.81952345	      4.66046251	    -10.43618913	    -15.79639528	      7.64195200	     -3.77714587	      3.78677228	     16.48711255	     -0.39069816	      1.96584584	    -68.14476795	     -6.72574310	     -8.67635554	      3.82784642	     -1.45880790	      4.23810478	      1.67743826
      0.77066667	      0.49682918	     -1.47523501	      4.29088270	     -0.51235370	      0.99943925	      0.32168760	      9.23224227	      4.65242371	    -10.48925596	    -15.42333094	      7.73583396	     -3.57459679	      3.79404194	     17.02084822	     -0.24388095	      2.06285300	    -68.02609164	     -6.06485936	     -8.96357938	      3.60250828	     -1.57678361	      4.17002633	      1.77416496
      0.77483333	      0.49571108	     -1.42085154	      4.26145675	     -0.50738219	      0.99999284	      0.32191138	      8.73379615	      4.65285304	    -10.49548842	    -15.08249330	      7.84100661	     -3.47997168	      3.79812639	     17.61963926	     -0.10381974	      2.14326458	    -67.86804288	     -5.42261719	     -9.28178323	      3.53132539	     -1.62412441	      4.10246673	      1.82659590
      0.77900000	      0.58110021	     -1.36538271	      4.24394027	     -0.50235947	      1.00065499	      0.32212706	      8.10925437	      4.66194403	    -10.50878139	    -14.67586430	      7.92235443	     -3.30779479	      3.80275621	     18.09871927	      0.02522981	      2.22855719	    -67.63680578	     -4.80886830	     -9.55077668	      3.37663820	     -1.76996893	      4.04784738	      1.94541236
      0.78316667	      0.56646074	     -1.30087971	      4.19886551	     -0.49739496	      1.00112799	      0.32235757	      7.62618580	      4.65109602	    -10.49189607	    -14.33679733	      8.03218640	     -3.21366858	      3.80625169	     18.67917875	      0.17039363	      2.29106143	    -67.36387281	     -4.20892242	     -9.85866612	      3.33050785	     -1.79156189	      3.98267704	      1.99925272
      0.78733333	      0.64584741	     -1.23655342	      4.15445611	     -0.49240143	      1.00169673	      0.32261227	      7.02209146	      4.65003608	    -10.49406206	    -13.95596418	      8.11256488	     -3.02335293	      3.81056174	     19.13499121	      0.29620311	      2.34300923	    -67.02885730	     -3.63415101	    -10.14887898	      3.16551995	     -1.94792642	      3.90035507	      2.16462693
      0.79150000	      0.67744951	     -1.15840852	      4.09260877	     -0.48743229	      1.00218076	      0.32287524	      6.48446086	      4.62662040	    -10.48213499	    -13.60484086	      8.20592057	     -2.84611179	      3.81612473	     19.62500868	      0.43771049	      2.38041852	    -66.63572128	     -3.08597770	    -10.45239269	      2.94659071	     -2.03883156	      3.81079941	      2.30993038
      0.79566667	      0.66385514	     -1.07785030	      4.00996406	     -0.48249787	      1.00253654	      0.32313143	      6.03107038	      4.58331241	    -10.51090461	    -13.32539866	      8.32567904	     -2.51426044	      3.84160519	     20.15526506	      0.58187305	      2.39949528	    -66.20911889	     -2.50716729	    -10.70542473	      1.03672754	     -2.07843422	      3.71550120	      2.52790677
      0.79983333	      0.68470279	     -1.01057941	      3.93595305	     -0.47755267	      1.00292716	      0.32342286	      5.50700884	      4.57780210	    -10.44717874	    -12.97268006	      8.41513481	     -2.49734021	      3.84401297	     20.63041129	      0.69884286	      2.42203306	    -65.72166720	     -1.99365989	    -10.99683156	      1.00712614	     -2.15707780	      3.63320667	      2.53745608
      0.80400000	      0.67953628	     -0.94660284	      3.84981143	     -0.47264474	      1.00321783	      0.32371919	      5.02802043	      4.56960016	    -10.37555169	    -12.64952100	      8.50934298	     -2.40404127	      3.84724679	     21.12435343	      0.81136394	      2.44115581	    -65.19403903	     -1.50511514	    -11.24753011	      0.98114317	     -2.21864933	      3.56455959	      2.62279785
      0.80816667	      0.67359709	     -0.88456894	      3.75369711	     -0.46773948	      1.00347067	      0.32402242	      4.55157373	      4.56175277	    -10.30162759	    -12.32530088	      8.60746879	     -2.28960376	      3.85049733	     21.60138797	      0.91579230	      2.45182235	    -64.61724243	     -1.03855691	    -11.48497909	      0.95071977	     -2.27792372	      3.48966319	      2.73993395
      0.81233333	      0.68517259	     -0.81305976	      3.64074848	     -0.46280592	      1.00371925	      0.32434089	      4.05963467	      4.53969607	    -10.24014751	    -12.01365275	      8.70368495	     -2.14895059	      3.85378281	     22.03163517	      1.01429443	      2.43460660	    -63.97543958	     -0.60813700	    -11.69958454	      0.90108302	     -2.34029980	      3.40545274	      2.90762458
